<svg xmlns="http://www.w3.org/2000/svg" viewBox="0 0 429.91 212.3"><defs><style>.cls-1{fill:#5ce500;}.cls-2{fill:#fff;}</style></defs><g id="Logos"><path class="cls-1" d="M96.5,92a2,2,0,0,1-.89,1.55L83.1,100.76V72.91L59,59l12.5-7.22a2,2,0,0,1,1.8,0L96.5,65.17ZM77.73,76,61.21,66.46a2,2,0,0,0-1.79,0L48.25,72.9,65.68,83v20.13l11.15-6.45a2,2,0,0,0,.9-1.56ZM48.25,93l12.06,7V86.06Z"/><path class="cls-2" d="M123,65.16H109.89v35.6h5.84v-14h7.36c8,0,12.35-3.89,12.35-11,0-3.21-1.21-10.67-12.4-10.67m6.47,10.77c0,4-2.08,5.65-7.19,5.65h-6.59V70.42h7.36c4.32,0,6.42,1.8,6.42,5.51m23.29-1.11.44.22-1,5.26-.68-.21a5.71,5.71,0,0,0-1.68-.26c-5.45,0-5.9,4.34-5.9,9.59v11.34h-5.4V74.62h5.07v3.15a7,7,0,0,1,5.24-3.48,7.33,7.33,0,0,1,3.9.53m13.28-.73c-4.25,0-7.65,1.62-9.85,4.68a15.74,15.74,0,0,0-2.64,9c0,8.26,4.9,13.6,12.49,13.6,9.22,0,12.5-7.43,12.5-13.8a14.64,14.64,0,0,0-3.05-9.35,11.83,11.83,0,0,0-9.45-4.1m0,22.42c-4.23,0-6.85-3.36-6.85-8.77s2.62-8.87,6.85-8.87,6.9,3.44,6.9,8.77-2.64,8.87-6.9,8.87M224,74.82l.44.22-1,5.26-.68-.21a5.83,5.83,0,0,0-1.69-.26c-5.45,0-5.89,4.34-5.89,9.59v11.34h-5.4V74.62h5.07v3.15a7,7,0,0,1,5.24-3.48,7.36,7.36,0,0,1,3.9.53m19.4,17.56-.1.29a5.75,5.75,0,0,1-5.89,3.89c-4.08,0-6.72-2.72-7-7.12h18.48l.07-.52a15.91,15.91,0,0,0,.06-2.08c0-.17,0-.32,0-.47-.27-7.32-5-12.23-11.87-12.23a11.27,11.27,0,0,0-9.46,4.53,15.65,15.65,0,0,0-2.8,9.11c0,8.08,5,13.51,12.5,13.51,5.78,0,9.77-2.94,11.22-8.27l.17-.64Zm-12.78-7.63c.45-3.63,2.93-5.93,6.46-5.93a6.14,6.14,0,0,1,6.32,5.93Zm-30.67-7.94A9.26,9.26,0,0,0,193,74.09c-7.92,0-11.53,7-11.53,13.45,0,6.65,3.57,13.36,11.53,13.36a9.26,9.26,0,0,0,6.75-2.73c0,1.15-.05,2.25-.08,2.71-.3,4.32-2.37,6.32-6.52,6.32-2.26,0-4.86-.8-5.36-3l-.11-.5h-5.32l.09.72c.55,4.61,4.6,7.47,10.55,7.47,5.23,0,8.95-2,10.75-5.69A18.19,18.19,0,0,0,205,98.39V74.62h-5.12Zm-6.61,19.27c-1.89,0-6.28-.86-6.28-8.77,0-5.21,2.46-8.44,6.42-8.44,3.06,0,6.33,2.21,6.33,8.44,0,5.49-2.42,8.77-6.47,8.77M274,92.89c0,4.16-3.45,8.35-11.16,8.35-6.82,0-10.88-2.95-11.42-8.31l-.06-.55h5.31l.09.4c.65,3.22,3.72,3.9,6.18,3.9,2.69,0,5.58-.87,5.58-3.31,0-1.23-.81-2.11-2.39-2.6-.94-.28-2.1-.61-3.32-1-2.1-.59-4.28-1.2-5.61-1.66C253.85,87,252,84.66,252,81.81c0-5.27,5.13-7.63,10.21-7.63,6.8,0,10.32,2.56,10.76,7.83l.05.54h-5.24l-.08-.42c-.52-3-3.54-3.48-5.29-3.48-1.51,0-5,.27-5,2.78,0,1.13,1,2,3,2.55.6.17,1.49.4,2.51.66,2.14.56,4.79,1.25,6.13,1.71,3.33,1.17,5,3.37,5,6.54m24.95,0c0,4.16-3.45,8.35-11.16,8.35-6.82,0-10.88-2.95-11.42-8.31l-.06-.55h5.32l.08.4c.65,3.22,3.72,3.9,6.18,3.9,2.7,0,5.57-.87,5.57-3.31,0-1.23-.8-2.11-2.38-2.6-.94-.28-2.1-.61-3.32-1-2.1-.59-4.27-1.2-5.61-1.66-3.32-1.19-5.22-3.5-5.22-6.35,0-5.27,5.13-7.63,10.21-7.63,6.8,0,10.32,2.56,10.76,7.83l.05.54h-5.24l-.08-.42c-.52-3-3.54-3.48-5.29-3.48-1.51,0-5,.27-5,2.78,0,1.13,1,2,3,2.55.6.17,1.48.4,2.52.66,2.13.56,4.78,1.25,6.12,1.71,3.33,1.17,5,3.37,5,6.54"/><path class="cls-2" d="M303.19,77.42a3.72,3.72,0,1,1,3.68-3.72,3.65,3.65,0,0,1-3.68,3.72m0-6.81a3.09,3.09,0,1,0,3,3.09,3,3,0,0,0-3-3.09m-.43,3.78v1.24h-1.09v-3.9h1.83a1.3,1.3,0,0,1,1.44,1.36,1.14,1.14,0,0,1-.75,1.18l.89,1.36h-1.22l-.75-1.24Zm.61-1.75h-.61v.88h.61c.33,0,.51-.17.51-.43s-.18-.45-.51-.45"/><path class="cls-2" d="M112.85,141.72l17.68-16h3.82l-18.7,16.82,19.15,18.18H131l-18.13-17v17H110v-35h2.9Z"/><path class="cls-2" d="M146.38,158.77a10.13,10.13,0,0,0,7.12-2.51v2.79a11.3,11.3,0,0,1-7.35,2.23c-7.07,0-11.8-5-11.8-12.94s4.22-13.4,10.94-13.4,10,5,10,12.37v1H137.14C137.14,155.18,141.13,158.77,146.38,158.77ZM137.25,146h15.34c-.17-4.45-2.28-8.55-7.3-8.55C141.13,137.45,137.94,140.53,137.25,146Z"/><path class="cls-2" d="M159.42,135.45h2.85v4.05a9.87,9.87,0,0,1,8.1-4.56c5.75,0,8.78,3.7,8.78,9.06v16.76h-2.8V144.4c0-3.93-2-6.84-6.5-6.84a8.48,8.48,0,0,0-7.58,5.47v17.73h-2.85Z"/><path class="cls-2" d="M202.18,157a9.76,9.76,0,0,1-7.86,4.28c-7.47,0-11.06-6.16-11.06-13.17s3.59-13.17,11.06-13.17a9.78,9.78,0,0,1,7.86,4.27v-15.5H205v37.05h-2.8Zm0-14.42a8.66,8.66,0,0,0-7.64-5c-5.3,0-8.43,4.45-8.43,10.55s3.13,10.54,8.43,10.54a8.65,8.65,0,0,0,7.64-5Z"/><path class="cls-2" d="M220.51,161.28c-6.67,0-11.18-5.36-11.18-13.17s4.51-13.17,11.18-13.17,11.23,5.36,11.23,13.17S227.23,161.28,220.51,161.28Zm0-23.83c-5,0-8.32,4.27-8.32,10.66s3.3,10.66,8.32,10.66,8.38-4.28,8.38-10.66S225.58,137.45,220.51,137.45Z"/><path class="cls-2" d="M239.39,145.31v15.45h-2.91v-35h12.08c6.84,0,11.29,3.42,11.29,9.81,0,5.64-3.48,8.89-9,9.63l10.6,15.56h-3.36l-10.43-15.45Zm0-2.56h9.06c5.36,0,8.55-2.68,8.55-7.18s-3.19-7.19-8.55-7.19h-9.06Z"/><path class="cls-2" d="M274.74,158.77a10.17,10.17,0,0,0,7.13-2.51v2.79a11.3,11.3,0,0,1-7.35,2.23c-7.07,0-11.81-5-11.81-12.94s4.22-13.4,11-13.4,10,5,10,12.37v1H265.51C265.51,155.18,269.5,158.77,274.74,158.77ZM265.62,146H281c-.17-4.45-2.28-8.55-7.3-8.55C269.5,137.45,266.31,140.53,265.62,146Z"/><path class="cls-2" d="M302,143.21c0-3.43-2.39-5.65-6.27-5.65a13,13,0,0,0-7.35,2.22v-2.73a14.29,14.29,0,0,1,7.64-2.11c5.36,0,8.72,3.08,8.72,8.09v17.73H302v-2.39a9.78,9.78,0,0,1-7,2.79c-5.13,0-9.35-3-9.35-7.81,0-4.67,4.22-7.75,9.47-7.75a10,10,0,0,1,6.89,2.68Zm0,8.55c-.79-2.17-3.64-3.77-6.72-3.77-3.59,0-6.9,1.77-6.9,5.36s3.31,5.42,6.9,5.42c3.08,0,5.93-1.6,6.72-3.76Z"/><path class="cls-2" d="M320.55,134.94a10.26,10.26,0,0,1,6.72,2.22v2.91a9.25,9.25,0,0,0-6.61-2.57c-5,0-9.06,3.94-9.06,10.61s4,10.6,9.06,10.6a9.24,9.24,0,0,0,6.61-2.56v2.9a10.26,10.26,0,0,1-6.72,2.23c-6.79,0-11.8-5.19-11.8-13.17S313.76,134.94,320.55,134.94Z"/><path class="cls-2" d="M337.78,160.76h-2.85V137.9h-5.42v-2.45h5.42V129h2.85v6.5h6v2.45h-6Z"/><path class="cls-2" d="M347.08,132.3h4.3v.91h-1.61v4.12H348.7v-4.12h-1.62Zm7.53,3.9-1.43-2.13v3.26h-1v-5h1l1.53,2.36,1.54-2.36h.95v5h-1v-3.26l-1.4,2.13Z"/></g></svg>